<?xml version="1.0" encoding="UTF-8"?>
<svg version="1.1" xmlns="http://www.w3.org/2000/svg" width="320" height="320">
<path d="M0 0 C1.98069795 -0.0075797 3.96138525 -0.01859074 5.94204712 -0.03274536 C11.28500932 -0.06050661 16.62667292 -0.03842734 21.96956205 -0.00532293 C27.57433141 0.02250773 33.17903035 0.00944413 38.78384399 0.00241089 C48.18683666 -0.00298054 57.5893168 0.02385591 66.9921875 0.0703125 C77.85628748 0.12361761 88.71953351 0.12699241 99.58371961 0.10353577 C110.05378394 0.08197156 120.52354001 0.09435489 130.99357986 0.12264633 C135.44244314 0.13414932 139.89108021 0.13401419 144.33994675 0.12451553 C149.57541986 0.11496347 154.8099584 0.13522815 160.04525375 0.17842484 C161.96446073 0.1895409 163.88375771 0.19050902 165.80297089 0.1805191 C168.42610671 0.16857815 171.04640101 0.19367583 173.66928101 0.22805786 C174.80435217 0.21002773 174.80435217 0.21002773 175.96235406 0.19163334 C181.220814 0.31672694 183.89811169 1.90480221 187.71796763 5.48445499 C191.53339342 9.70145027 191.36795082 14.29241177 191.28759766 19.71044922 C191.28476776 20.43584396 191.28193787 21.16123871 191.27902222 21.90861511 C191.26788315 24.21122165 191.24279082 26.51343024 191.21728516 28.81591797 C191.20724722 30.38296962 191.19812279 31.9500274 191.18994141 33.51708984 C191.16967116 37.34614022 191.13051225 41.17433693 191.09228516 45.00341797 C197.36228516 45.00341797 203.63228516 45.00341797 210.09228516 45.00341797 C210.09228516 125.52341797 210.09228516 206.04341797 210.09228516 289.00341797 C151.09447266 289.09623047 151.09447266 289.09623047 90.90478516 289.19091797 C78.47282471 289.21822998 66.04086426 289.24554199 53.23217773 289.27368164 C38.0838623 289.28723145 38.0838623 289.28723145 30.99858093 289.28974915 C26.03625996 289.2925509 21.07403469 289.30382033 16.11174011 289.32014465 C9.7878712 289.34067355 3.46414208 289.34690042 -2.85975707 289.3426348 C-5.18427106 289.34352718 -7.50878978 289.34950458 -9.8332752 289.36106336 C-12.96672128 289.37592468 -16.09962007 289.37241043 -19.233078 289.36418152 C-20.6057431 289.37728851 -20.6057431 289.37728851 -22.0061388 289.39066029 C-26.79925978 289.35669115 -30.03431987 289.14612053 -33.90771484 286.00341797 C-39.067475 279.6268273 -38.50958556 272.90505617 -38.51708984 264.97607422 C-38.53208925 263.61842391 -38.54882008 262.26079174 -38.56719971 260.90318298 C-38.61068908 257.35060741 -38.63083083 253.7982779 -38.64593506 250.2454834 C-38.66557323 246.61191366 -38.70753535 242.9786071 -38.74755859 239.34521484 C-38.82266036 232.23138319 -38.87307258 225.11757116 -38.90771484 218.00341797 C-40.53580078 219.03402344 -40.53580078 219.03402344 -42.19677734 220.08544922 C-43.64199834 220.99575076 -45.08731597 221.90589889 -46.53271484 222.81591797 C-47.24556641 223.26773438 -47.95841797 223.71955078 -48.69287109 224.18505859 C-49.39541016 224.6265625 -50.09794922 225.06806641 -50.82177734 225.52294922 C-51.46066895 225.92618408 -52.09956055 226.32941895 -52.7578125 226.74487305 C-55.41146171 228.29830953 -58.1536984 229.63743743 -60.90771484 231.00341797 C-61.56319149 204.57009866 -62.05620852 178.1380043 -62.35845566 151.69818211 C-62.50256165 139.41979658 -62.69880056 127.14647253 -63.02001953 114.87133789 C-63.30003147 104.1657498 -63.47994561 93.46382633 -63.5421927 82.75467819 C-63.57856743 77.08716429 -63.66327859 71.43012742 -63.86815643 65.76599312 C-65.09991913 30.35001021 -65.09991913 30.35001021 -58.23530579 22.51203537 C-52.03687212 16.63959785 -44.4071605 13.40837309 -36.48364449 10.5040741 C-32.78781165 8.95310001 -29.97595856 7.02774797 -26.73684692 4.68528748 C-18.24834886 -0.70369172 -9.72954325 -0.10677933 0 0 Z " fill="#FE6B00" transform="translate(84.90771484375,14.99658203125)"/>
<path d="M0 0 C6.27 0 12.54 0 19 0 C19 80.52 19 161.04 19 244 C-39.9978125 244.0928125 -39.9978125 244.0928125 -100.1875 244.1875 C-112.61946045 244.21481201 -125.0514209 244.24212402 -137.86010742 244.27026367 C-153.00842285 244.28381348 -153.00842285 244.28381348 -160.09370422 244.28633118 C-165.05602519 244.28913293 -170.01825047 244.30040236 -174.98054504 244.31672668 C-181.30441396 244.33725558 -187.62814308 244.34348245 -193.95204222 244.33921683 C-196.27655621 244.34010921 -198.60107493 244.34608661 -200.92556036 244.35764539 C-204.05900644 244.37250671 -207.19190523 244.36899246 -210.32536316 244.36076355 C-211.24047322 244.36950154 -212.15558329 244.37823954 -213.09842396 244.38724232 C-217.89061032 244.3532798 -221.12825104 244.14395877 -225 241 C-232.20991711 231.9815307 -230.18161371 218.25293289 -230.34545898 207.21459961 C-230.39431565 204.28417509 -230.49850844 201.36397823 -230.65307617 198.43725586 C-230.84118316 194.87451518 -230.93272838 191.32092002 -230.95842171 187.75342369 C-230.99508282 185.76194603 -231.12390326 183.77283534 -231.25523376 181.78535461 C-231.20952848 176.85542113 -230.88364857 172.93994118 -227.37955278 169.33112592 C-215.03741247 159.49852146 -204.03991226 157.27691639 -188.6574707 157.63769531 C-186.59558309 157.64109013 -184.53368103 157.63916087 -182.47180176 157.63238525 C-176.93666962 157.62897695 -171.40473186 157.69894285 -165.87033486 157.78327274 C-160.06364413 157.85888288 -154.25685988 157.86538372 -148.44975281 157.87957764 C-137.48136293 157.91670293 -126.51442827 158.01493782 -115.54667586 158.13577151 C-103.04849345 158.27044289 -90.55023725 158.33601451 -78.05150855 158.39611673 C-52.36686922 158.52115641 -26.68351657 158.7318853 -1 159 C-1.00138269 157.77994813 -1.00138269 157.77994813 -1.00279331 156.53524876 C-1.02484687 136.77346387 -1.04141073 117.0116811 -1.05181217 97.24988651 C-1.05697551 87.69336061 -1.06401892 78.13684291 -1.07543945 68.58032227 C-1.08538514 60.25397993 -1.09185315 51.92764352 -1.09408849 43.60129541 C-1.0953958 39.18975143 -1.09848288 34.77822443 -1.10573006 30.36668587 C-1.11248846 26.21929613 -1.11461733 22.07193047 -1.11310768 17.92453575 C-1.11338409 16.3978627 -1.11539028 14.87118888 -1.11920547 13.34452057 C-1.12413994 11.26916541 -1.12299923 9.19390258 -1.12025452 7.11854553 C-1.12163721 5.37220872 -1.12163721 5.37220872 -1.12304783 3.59059238 C-1 1 -1 1 0 0 Z " fill="#923B00" transform="translate(276,60)"/>
<path d="M0 0 C0.46768403 26.25976357 0.82011366 52.51890125 1.03624344 78.78199387 C1.13927655 90.97733709 1.27966929 103.17008965 1.50878906 115.36376953 C1.70845372 125.99494679 1.83723404 136.62424808 1.8817699 147.25724816 C1.90779934 152.88601777 1.96870581 158.50942224 2.11460114 164.13646698 C2.96915862 198.39797672 2.96915862 198.39797672 -1.92958069 205.99073792 C-6.51371495 210.38329589 -11.47782443 212.42318053 -17.51204681 214.12427521 C-20.94301075 215.33192662 -23.43399737 217.26847206 -26.2215538 219.56199265 C-29.24341173 222.00539179 -32.59465673 223.9074406 -35.9375 225.875 C-36.94393555 226.47828125 -36.94393555 226.47828125 -37.97070312 227.09375 C-42.85893654 230 -42.85893654 230 -44 230 C-44.65547664 203.56668069 -45.14849368 177.13458633 -45.45074081 150.69476414 C-45.59484681 138.41637861 -45.79108571 126.14305456 -46.11230469 113.86791992 C-46.39231663 103.16233183 -46.57223077 92.46040836 -46.63447785 81.75126022 C-46.67085259 76.08374633 -46.75556375 70.42670945 -46.96044159 64.76257515 C-48.19220429 29.34659224 -48.19220429 29.34659224 -41.32759094 21.5086174 C-35.14030638 15.64674262 -27.53547288 12.44167144 -19.6419754 9.50457573 C-14.56241236 7.40610267 -10.19436377 4.5595027 -5.62197495 1.53577518 C-3 0 -3 0 0 0 Z " fill="#FE9346" transform="translate(68,16)"/>
<path d="M0 0 C23.76 0 47.52 0 72 0 C72 6.6 72 13.2 72 20 C57.48 20 42.96 20 28 20 C28 28.91 28 37.82 28 47 C40.21 47 52.42 47 65 47 C65 53.6 65 60.2 65 67 C52.79 67 40.58 67 28 67 C28 81.85 28 96.7 28 112 C18.76 112 9.52 112 0 112 C0 75.04 0 38.08 0 0 Z " fill="#FEFCFB" transform="translate(141,61)"/>
<path d="M0 0 C4.17230469 2.42808155 6.37794216 4.71906582 8.62109375 9.046875 C9.21959556 13.01000574 9.08498176 16.98059363 9.05859375 20.984375 C9.08856445 22.5921582 9.08856445 22.5921582 9.11914062 24.23242188 C9.11528151 30.46489616 8.87163729 34.35340462 4.62109375 39.046875 C-1.40098756 43.20497876 -6.13756596 43.73700273 -13.37890625 43.046875 C-16.85853002 42.04997549 -19.36630149 40.45045592 -21.53540039 37.44384766 C-24.68507979 31.61337812 -24.98491968 26.46820449 -24.87890625 19.921875 C-24.894375 18.95894531 -24.90984375 17.99601562 -24.92578125 17.00390625 C-24.89378504 11.18859482 -24.35720552 7.59350274 -20.37890625 3.046875 C-14.32992778 -1.64416953 -7.27739756 -2.91573892 0 0 Z " fill="#F8F4F0" transform="translate(216.37890625,238.953125)"/>
<path d="M0 0 C3.89013785 2.33408271 6.71926351 4.69168137 8 9.125 C8.061875 9.846875 8.12375 10.56875 8.1875 11.3125 C6.56331255 11.39340971 4.93798255 11.45164995 3.3125 11.5 C2.40757812 11.53480469 1.50265625 11.56960937 0.5703125 11.60546875 C-0.60917969 11.46044922 -0.60917969 11.46044922 -1.8125 11.3125 C-2.4725 10.3225 -3.1325 9.3325 -3.8125 8.3125 C-7.3125 7.89583333 -7.3125 7.89583333 -10.8125 8.3125 C-13.10825603 10.60825603 -13.13589599 11.32092525 -13.4375 14.4375 C-13.56125 15.71625 -13.685 16.995 -13.8125 18.3125 C-13.1525 18.3125 -12.4925 18.3125 -11.8125 18.3125 C-11.8125 17.6525 -11.8125 16.9925 -11.8125 16.3125 C-8.12862293 14.47056146 -3.84243847 14.95018692 0.1875 15.3125 C3.125 16.625 3.125 16.625 5.1875 18.3125 C5.71601563 18.71210938 6.24453125 19.11171875 6.7890625 19.5234375 C9.87978832 23.47749456 8.70611571 29.57503286 8.1875 34.3125 C6.46541397 38.15407652 5.00819951 39.69697537 1.6875 42.1875 C-4.70957108 44.24370142 -11.19876631 44.57269303 -17.3125 41.625 C-18.1375 40.861875 -18.9625 40.09875 -19.8125 39.3125 C-20.51375 38.69632812 -21.215 38.08015625 -21.9375 37.4453125 C-24.90545853 32.48634846 -24.39051151 27.54058596 -24.3125 21.875 C-24.32796875 20.75544922 -24.3434375 19.63589844 -24.359375 18.48242188 C-24.32931881 12.1518375 -24.16182104 8.0622098 -19.8125 3.3125 C-13.58211613 -1.42259174 -7.54485047 -1.84429678 0 0 Z " fill="#FAF6F4" transform="translate(177.8125,238.6875)"/>
<path d="M0 0 C3.39790313 2.06234706 5.34047213 3.63375507 7.57421875 6.984375 C8.07421875 10.359375 8.07421875 10.359375 7.57421875 13.984375 C5.7505517 16.11021944 3.91353867 17.37609256 1.57421875 18.984375 C2.07953125 19.31308594 2.58484375 19.64179688 3.10546875 19.98046875 C8.25895693 23.75355831 8.25895693 23.75355831 9.14453125 27.2109375 C9.25215825 31.80814783 8.81515774 35.54701547 5.57421875 38.984375 C-0.6270148 43.03851478 -7.14058609 44.09299165 -14.42578125 42.984375 C-19.32779212 40.66706077 -21.7755698 37.67321065 -24.42578125 32.984375 C-24.42578125 32.324375 -24.42578125 31.664375 -24.42578125 30.984375 C-22.8015938 30.90346529 -21.1762638 30.84522505 -19.55078125 30.796875 C-18.64585938 30.76207031 -17.7409375 30.72726562 -16.80859375 30.69140625 C-15.62910156 30.83642578 -15.62910156 30.83642578 -14.42578125 30.984375 C-13.76578125 31.974375 -13.10578125 32.964375 -12.42578125 33.984375 C-9.68303045 34.45552238 -7.23019228 34.16243284 -4.42578125 33.984375 C-3.02145189 32.80718515 -3.02145189 32.80718515 -3.30078125 29.484375 C-3.02145189 26.16156485 -3.02145189 26.16156485 -4.42578125 24.984375 C-5.77325209 24.75362418 -7.1295569 24.57284437 -8.48828125 24.421875 C-9.78765625 24.2775 -11.08703125 24.133125 -12.42578125 23.984375 C-12.42578125 21.344375 -12.42578125 18.704375 -12.42578125 15.984375 C-10.72421875 15.7678125 -10.72421875 15.7678125 -8.98828125 15.546875 C-5.61800924 15.37266022 -5.61800924 15.37266022 -4.42578125 13.984375 C-4.38497342 11.98479136 -4.38323769 9.98392246 -4.42578125 7.984375 C-7.84220884 7.73421627 -7.84220884 7.73421627 -11.42578125 7.984375 C-12.41578125 9.469375 -12.41578125 9.469375 -13.42578125 10.984375 C-15.80859375 11.27734375 -15.80859375 11.27734375 -18.55078125 11.171875 C-19.46085937 11.14480469 -20.3709375 11.11773437 -21.30859375 11.08984375 C-22.00726563 11.05503906 -22.7059375 11.02023438 -23.42578125 10.984375 C-23.01021708 6.13612632 -21.0512988 4.10400638 -17.42578125 0.984375 C-12.22227278 -2.17529257 -5.58537056 -2.33848043 0 0 Z " fill="#F9F4F1" transform="translate(140.42578125,239.015625)"/>
<path d="M0 0 C3.5 0.25 3.5 0.25 5.5 2.25 C5.75878906 4.6484375 5.75878906 4.6484375 5.765625 7.625 C5.76820313 8.69234375 5.77078125 9.7596875 5.7734375 10.859375 C5.76570312 11.97828125 5.75796875 13.0971875 5.75 14.25 C5.75773438 15.36890625 5.76546875 16.4878125 5.7734375 17.640625 C5.77085937 18.70796875 5.76828125 19.7753125 5.765625 20.875 C5.76336914 21.85726563 5.76111328 22.83953125 5.75878906 23.8515625 C5.5 26.25 5.5 26.25 3.5 28.25 C0 28.5625 0 28.5625 -3.5 28.25 C-5.71046868 24.93429699 -5.75630672 23.85885231 -5.765625 19.99609375 C-5.76820313 18.97708984 -5.77078125 17.95808594 -5.7734375 16.90820312 C-5.76570312 15.84537109 -5.75796875 14.78253906 -5.75 13.6875 C-5.75773438 12.62080078 -5.76546875 11.55410156 -5.7734375 10.45507812 C-5.77085937 9.43736328 -5.76828125 8.41964844 -5.765625 7.37109375 C-5.76336914 6.4370874 -5.76111328 5.50308105 -5.75878906 4.54077148 C-5.30475473 0.52171095 -3.86864253 0.27633161 0 0 Z " fill="#933D04" transform="translate(208.5,245.75)"/>
<path d="M0 0 C2 2 2 2 2.3125 5.9375 C2.2339218 8.48435809 2.13665953 9.75704973 0.875 12 C-1.89815624 13.47901666 -3.91184125 13.38601984 -7 13 C-8.875 11.9375 -8.875 11.9375 -10 10 C-10.4375 6.5 -10.4375 6.5 -10 3 C-7.14180158 -0.40785196 -4.27356961 -0.46451844 0 0 Z " fill="#97440D" transform="translate(174,261)"/>
</svg>
